<?xml version="1.0" standalone="no"?>
<!DOCTYPE svg PUBLIC "-//W3C//DTD SVG 1.1//EN" "http://www.w3.org/Graphics/SVG/1.1/DTD/svg11.dtd" >
<svg xmlns="http://www.w3.org/2000/svg">
<metadata>Generated by IcoMoon</metadata>
<defs>
<font id="icomoon" horiz-adv-x="1024">
<font-face units-per-em="1024" ascent="960" descent="-64" />
<missing-glyph horiz-adv-x="1024" />
<glyph unicode="&#x20;" horiz-adv-x="512" d="" />
<glyph unicode="&#xe900;" glyph-name="social-linkedin" d="M102.4 960c-56.73 0-102.4-45.67-102.4-102.4v-819.2c0-56.73 45.67-102.4 102.4-102.4h819.2c56.73 0 102.4 45.67 102.4 102.4v819.2c0 56.73-45.67 102.4-102.4 102.4h-819.2zM286.527 743.363c39.285 0 71.107-31.822 71.107-71.107s-31.822-71.168-71.107-71.168-71.107 31.883-71.107 71.168c0 39.285 31.822 71.107 71.107 71.107zM659.007 558.141c8.038-0.027 16.237-0.406 27.271-1.085 53.625-3.308 113.377-45.22 115.139-143.421 1.444-80.884 1.020-209.064 1.020-256.258h-121.917c0 48.28 0.512 148.017 0.512 218.563 0 32.092-14.41 75.26-65.729 75.26-56.525 0-70.275-52.519-70.275-75.264 0-67.734-0.573-175.616-0.573-218.558h-121.221c0 72.385 0.77 320.825 0.77 390.975 62.607 0 92.553 0.129 115.458 0.129 0-22.974-0.193-38.343-0.193-55.106 19.122 38.609 71.336 62.781 93.696 63.939 10.199 0.524 18.016 0.86 26.051 0.829zM225.671 546.816h121.534v-389.249h-121.537v389.249z" />
<glyph unicode="&#xe901;" glyph-name="asterix" horiz-adv-x="1056" d="M1034.464 521.152l-427.040-17.12 248.064 382.816-135.424 73.152-197.568-402.272-196.96 402.272-136-73.152 248-382.816-427.040 17.12v-146.272l424.096 23.008-237.44-388.736 127.936-73.152 197.44 402.272 197.44-402.272 127.872 73.152-237.408 388.736 424.096-23.008z" />
<glyph unicode="&#xe902;" glyph-name="book" horiz-adv-x="1056" d="M522.464 733.408c-125.376 78.048-316.416 109.504-512 115.456v-704.224c167.968-5.12 332.576-29.024 455.104-85.12 36.128-16.544 77.696-16.512 113.824 0 122.56 56.096 287.104 80 455.072 85.12v704.224c-195.616-5.984-386.624-37.408-512-115.456zM109.856 743.744c118.080-9.92 262.24-33.92 362.88-96.512v-482.752c-97.728 38.784-219.104 63.712-362.88 74.528v504.736zM935.008 239.008c-143.744-10.816-265.152-35.744-362.88-74.528v482.752c100.64 62.592 244.8 86.592 362.88 96.512v-504.736zM429.664 630.208v-52.384c-78.624 26.72-158.272 43.872-252.672 54.4v50.016c94.144-10.144 174.208-26.624 252.672-52.032zM176.96 274.304c94.4-10.496 174.048-27.712 252.672-54.4v52.384c-78.464 25.408-158.56 41.888-252.672 52.032v-50.016zM176.96 365.024c94.4-10.528 174.048-27.68 252.672-54.4v52.384c-78.464 25.408-158.56 41.888-252.672 52.032v-50.016zM176.96 542.752c94.4-10.528 174.048-27.712 252.672-54.4v52.384c-78.464 25.408-158.56 41.856-252.672 52.032v-50.016zM176.96 454.496c94.4-10.496 174.048-27.712 252.672-54.4v52.384c-78.464 25.408-158.56 41.856-252.672 52.032v-50.016zM867.904 682.208v-50.016c-94.4-10.528-174.048-27.68-252.672-54.4v52.384c78.496 25.376 158.56 41.856 252.672 52.032zM867.904 324.32c-94.112-10.144-174.208-26.624-252.672-52.032v-52.384c78.624 26.72 158.272 43.904 252.672 54.4v50.016zM867.904 415.040c-94.112-10.176-174.208-26.656-252.672-52.032v-52.384c78.624 26.72 158.272 43.872 252.672 54.4v50.016zM867.904 592.736c-94.112-10.176-174.208-26.624-252.672-52.032v-52.384c78.624 26.72 158.272 43.872 252.672 54.4v50.016zM867.904 504.512c-94.112-10.176-174.208-26.624-252.672-52.032v-52.384c78.624 26.72 158.272 43.904 252.672 54.4v50.016z" />
<glyph unicode="&#xe903;" glyph-name="calendar" horiz-adv-x="1056" d="M376.928 348.704h-146.4v146.4h146.4v-146.4zM598.144 495.104h-146.4v-146.4h146.4v146.4zM819.328 495.104h-146.4v-146.4h146.4v146.4zM376.928 281.376h-146.4v-146.4h146.4v146.4zM598.144 281.376h-146.4v-146.4h146.4v146.4zM819.328 281.376h-146.4v-146.4h146.4v146.4zM873.856 790.656c0-24.928-20.224-45.152-45.152-45.152s-45.152 20.224-45.152 45.152v113.664c0 24.928 20.224 45.152 45.152 45.152s45.152-20.224 45.152-45.152v-113.664zM263.68 904.512c0 24.928-20.224 45.152-45.152 45.152s-45.152-20.224-45.152-45.152v-113.664c0-24.928 20.224-45.152 45.152-45.152s45.152 20.224 45.152 45.152v113.664zM928.448 838.592v-46.272c0-55.008-44.768-99.744-99.744-99.744s-99.744 44.768-99.744 99.744v46.272h-410.688v-46.048c0-55.008-44.736-99.744-99.744-99.744s-99.744 44.736-99.744 99.744v46.048h-108.32v-892.256h1024v892.256h-106.016zM935.008 45.728h-825.152v552.928h825.152v-552.928z" />
<glyph unicode="&#xe904;" glyph-name="chevron-double-right" horiz-adv-x="1056" d="M10.464 798.080l348.416-350.080-348.416-350.080 127.776-127.168 474.976 477.248-474.976 477.248-127.776-127.168zM559.456 925.248l-127.744-127.168 348.448-350.080-348.448-350.080 127.776-127.168 474.976 477.248-474.976 477.248z" />
<glyph unicode="&#xe905;" glyph-name="chevron-down" horiz-adv-x="1056" d="M1034.464 634.24l-136.416 137.056-375.584-373.792-375.584 373.792-136.416-137.056 512-509.568z" />
<glyph unicode="&#xe906;" glyph-name="chevron-left" horiz-adv-x="1056" d="M708.704 960l137.056-136.416-373.792-375.584 373.792-375.584-137.056-136.416-509.568 512z" />
<glyph unicode="&#xe907;" glyph-name="chevron-right" horiz-adv-x="1056" d="M336.192 960l-137.056-136.416 373.792-375.584-373.792-375.584 137.056-136.416 509.568 512z" />
<glyph unicode="&#xe908;" glyph-name="chevron-up" horiz-adv-x="1056" d="M1034.464 261.76l-136.416-137.056-375.584 373.792-375.584-373.792-136.416 137.056 512 509.568z" />
<glyph unicode="&#xe909;" glyph-name="close" horiz-adv-x="1056" d="M160.416 85.984c-199.936 199.936-199.936 524.096 0 724.032 200 199.936 524.096 199.936 724.096 0 199.936-199.936 199.936-524.096 0-724.032-200-199.968-524.096-199.968-724.096 0zM793.984 719.552c-149.984 149.952-393.088 149.952-543.040 0-149.984-149.984-149.984-393.088 0-543.040 149.952-149.984 393.056-149.984 543.040 0 149.92 149.984 149.92 393.088 0 543.040zM386.72 221.728l-90.496 90.528 135.744 135.744-135.744 135.744 90.496 90.528 135.744-135.776 135.744 135.776 90.496-90.528-135.744-135.744 135.744-135.744-90.496-90.528-135.744 135.776-135.744-135.776z" />
<glyph unicode="&#xe90a;" glyph-name="minus" horiz-adv-x="2880" d="M0 960v-1027.808h2889.632v1027.808h-2889.632zM281.376 678.624h2326.912v-465.088h-2326.912v465.088z" />
<glyph unicode="&#xe90b;" glyph-name="ok" horiz-adv-x="1056" d="M397.728-64c-31.84 0-61.952 14.88-81.28 40.448l-261.408 345.184c-34.016 44.896-25.152 108.832 19.744 142.816 44.96 34.016 108.864 25.12 142.848-19.744l171.904-227.008 432.416 694.24c29.76 47.776 92.64 62.368 140.48 32.64 47.808-29.76 62.4-92.672 32.64-140.448l-510.784-820.064c-17.728-28.512-48.352-46.432-81.92-47.968-1.568-0.064-3.104-0.096-4.672-0.096z" />
<glyph unicode="&#xe90c;" glyph-name="paperflyer" horiz-adv-x="1056" d="M187.008 550.976l245.888-59.744 356.416 246.304-265.92-280.608 269.856-255.776 211.712 758.848-817.952-409.024zM490.88 161.888l116.448 134.688-116.448 112.192v-246.88zM390.304 262.048l40.096-39.84c-37.312-37.728-75.616-82.464-90.656-144l-54.912 13.408c18.528 75.68 63.648 128.192 105.472 170.432zM336.032-63.36c-35.616-3.648-67.2 8.064-93.056 34.752-62.176-21.952-121.344 1.856-152.576 46.272-24.544 34.848-29.984 79.040-15.040 121.376-26.72 25.888-38.4 57.184-34.752 93.024 6.080 60.064 53.792 106.4 137.6 97.696l8.32-47.648c-28.32-2.656-54.496-4.128-71.424-21.088-28.512-28.512-19.936-88.032 33.568-103.808-35.488-35.648-32.032-86.912-5.408-115.040 27.936-29.472 81.216-34.080 117.984 2.496 16.416-55.68 76.704-60.672 103.808-33.568 16.736 16.736 18.368 42.432 20.992 70.368l48.032-9.76c8.096-80.096-37.376-128.928-97.984-135.072zM181.952 236l13.44-54.912c74.88 18.304 125.952 61.856 170.208 105.44l-40 39.712c-37.408-36.96-82.272-75.264-143.616-90.272z" />
<glyph unicode="&#xe90d;" glyph-name="play" horiz-adv-x="1056" d="M522.464 767.904c-178.144 0-322.56-142.656-322.56-318.688s144.416-318.688 322.56-318.688c178.176 0 322.56 142.688 322.56 318.688s-144.416 318.688-322.56 318.688zM431.008 273.632v343.328l279.968-171.648-279.968-171.68zM572.16 958.784c163.424-15.904 310.592-109.632 393.696-253.6s90.688-318.24 22.752-467.744l-86.624 50.016c50.496 118.432 43.136 254.848-22.208 368s-179.776 187.744-307.616 203.264v100.064zM938.912 151.36c-95.52-133.568-250.24-214.176-416.48-214.176s-320.96 80.608-416.48 214.176l86.656 50.016c77.312-102.944 199.168-164.768 329.824-164.768s252.48 61.824 329.824 164.768l86.656-50.016zM56.288 237.472c-67.936 149.504-60.352 323.808 22.752 467.744s230.272 237.664 393.728 253.6v-100.064c-127.808-15.488-242.272-90.080-307.584-203.232s-72.704-249.568-22.24-368l-86.624-50.016z" />
<glyph unicode="&#xe90e;" glyph-name="plus" d="M329.888 960v-329.888h-329.888v-364.224h329.888v-329.888h364.224v329.888h329.888v364.224h-329.888v329.888h-364.224zM99.712 530.4h329.888v329.888h164.8v-329.888h329.888v-164.8h-329.888v-329.888h-164.8v329.888h-329.888v164.8z" />
<glyph unicode="&#xe90f;" glyph-name="question" horiz-adv-x="1056" d="M536.288 258.496c-27.936 0-50.624 22.656-50.624 50.624s22.688 50.592 50.624 50.592 50.592-22.656 50.592-50.592c0-27.936-22.656-50.624-50.592-50.624zM576.064 408.064v-9.088h-83.392v9.088c0 25.76 3.744 58.784 33.664 87.52s67.296 52.448 67.296 88.352c0 39.68-27.52 60.672-62.24 60.672-57.856 0-61.632-60-63.040-73.216h-81.152c2.176 62.56 28.608 150.080 144.672 150.080 100.576 0 145.824-67.36 145.824-130.528 0-100.544-101.568-118.016-101.568-182.88zM12.736-25.856c41.408 82.4 87.392 195.456 85.056 274.336-55.808 67.296-87.328 153.984-87.328 242.304 0 248.992 241.568 431.040 512 431.040 268.768 0 512-180.672 512-431.040 0-260.704-287.232-504.192-681.312-407.392-71.584-44.256-229.408-88.992-340.416-109.248zM522.464 822.144c-227.36 0-412.288-148.64-412.288-331.36 0-96.128 41.504-156.672 100.064-216.352-11.904-88.64-40.48-165.664-40.48-165.664s84.512 22.368 180.512 78.432c367.328-97.408 584.48 114.56 584.48 303.616 0 182.688-184.96 331.328-412.288 331.328z" />
<glyph unicode="&#xe910;" glyph-name="quote" horiz-adv-x="1056" d="M489.024 582.56c0-101.536-64.192-170.368-157.664-188.864l-17.696 38.304c43.296 16.32 70.752 55.36 70.752 94.72h-73.088v169.408h177.728c0 0 0-54.080 0-113.568zM738.528 582.56c0-101.536-64.16-170.368-157.664-188.864l-17.696 38.304c43.296 16.32 70.784 55.36 70.784 94.72h-73.088v169.408h177.696c0 0 0-54.080 0-113.568zM935.008 823.328v-531.104h-466.464l-198.4-132.8v132.8h-160.32v531.104h825.152zM1034.464 922.752h-1024v-729.92h160.288v-219.552l328.032 219.552h535.68v729.92z" />
<glyph unicode="&#xe911;" glyph-name="read" horiz-adv-x="1056" d="M815.936 324.8c-80.032-4.192-167.52-28.512-231.904-50.304v-38.848c60.128 23.104 155.712 47.936 231.904 51.936v37.216zM815.936 255.776c-80.032-4.192-167.52-28.512-231.904-50.304v-38.88c60.128 23.104 155.712 47.936 231.904 51.936v37.216zM815.936 185.472c-80.032-4.192-167.52-28.512-231.904-50.304v-38.88c60.128 23.104 155.712 47.936 231.904 51.936v37.216zM459.872 135.168c-64.384 21.76-151.872 46.112-231.904 50.304v-37.216c76.192-4 171.808-28.864 231.904-51.936v38.88zM459.872 205.472c-64.384 21.792-151.872 46.112-231.904 50.304v-37.216c76.192-4 171.808-28.864 231.904-51.936v38.88zM459.872 274.496c-64.384 21.792-151.872 46.112-231.904 50.304v-37.216c76.192-4 171.808-28.864 231.904-51.936v38.88zM459.872 344.864c-64.384 21.76-151.872 46.112-231.904 50.304v-37.216c76.192-4 171.808-28.864 231.904-51.936v38.848zM459.872 413.888c-64.384 21.76-151.872 46.112-231.904 50.304v-37.216c76.192-4 171.808-28.864 231.904-51.936v38.88zM705.344 365.504l-15.040 59.68 16.192 4.064 7.904-41.984 8.48 46.080 15.808 3.936 7.808-41.184 7.808 45.088 15.488 3.872-15.84-67.392-16.032-4-7.84 40-8.544-44.096-16.224-4.064zM686.688 373.792l-25.024-6.272-0.064 13.28 22.4 5.6-0.064 12.832-22.4-5.6-0.064 11.424 23.776 5.92v12.928l-38.816-9.728v-63.36l40.256 10.048-0.032 12.896zM791.264 398.976c-4.832-1.216-10.432-1.184-14.976 0.032l-0.8 0.224-3.104-13.792 0.48-0.16c3.296-1.024 10.24-1.312 17.632 0.544 18.656 4.672 25.248 17.056 25.216 26.24-0.032 8.896-5.248 13.664-16.352 15.072-8.128 1.12-10.848 2.048-10.88 5.376 0 3.2 3.168 6.048 8.128 7.296 4.384 1.088 8.544 1.184 12.448 0.224l0.768-0.192 3.392 13.6-0.544 0.128c-4.64 0.96-9.952 0.704-15.84-0.768-14.208-3.552-23.744-13.696-23.68-25.312 0.032-8.544 5.856-13.472 17.28-14.656 7.296-0.832 9.76-2.272 9.76-5.632 0.032-3.808-3.232-6.784-8.928-8.224zM597.984 382.080l22.368-37.792 15.328 3.872v63.36l-13.92-3.52v-38.848l-20.736 33.696-16.96-4.288v-63.36l13.92 3.488v43.328zM521.952 933.312c-101.696 0-184.16-82.432-184.16-184.16s82.464-184.16 184.16-184.16c101.696 0 184.128 82.432 184.128 184.16s-82.464 184.16-184.128 184.16zM964.64 445.696v-213.184c35.744 24.096 69.824 52.352 69.824 110.976 0 51.104-35.744 87.68-69.824 102.208zM10.464 346.784c0-58.592 34.080-86.848 69.824-110.944v213.216c-34.080-14.56-69.824-51.104-69.824-102.24zM521.952 501.344c-101.76 55.52-258.304 84.224-398.624 91.136v-539.904c142.496-6.848 272.224-31.712 398.624-89.888 126.4 58.176 256.128 83.072 398.592 89.888v539.904c-140.288-6.912-296.864-35.616-398.592-91.136zM504.384 36.96c-92.672 35.744-205.312 60.448-322.976 70.048v422.304c102.784-12.352 239.776-37.248 322.976-87.040v-405.312zM862.496 107.008c-117.664-9.6-230.304-34.272-322.976-70.048v405.312c83.2 49.792 220.192 74.688 322.976 87.040v-422.304z" />
<glyph unicode="&#xe912;" glyph-name="social-twitter-t" horiz-adv-x="1056" d="M112.832 960c-56.736 0-102.4-45.664-102.4-102.4v-819.2c0-56.736 45.664-102.4 102.4-102.4h819.2c56.736 0 102.4 45.664 102.4 102.4v819.2c0 56.736-45.696 102.4-102.4 102.4h-819.2zM370.784 805.248c87.968 0 93.824-89.76 94.080-179.84h254.208c40.288 0 70.4-40.928 70.4-103.36 0-62.464-65.12-76.416-99.264-76.416h-228.16c-1.152-38.176-2.368-69.408-2.368-88.32 0-39.84 15.488-82.816 112.64-82.816h136.576c34.144 0 84.672-25.856 84.672-97.984s-71.296-78.72-96.128-78.72-162.4 3.264-197.504 3.264-218.112 57.088-218.112 258.496c0 35.936-0.032 71.872-0.128 107.84-0.16 33.408-0.832 66.88-0.96 100.16-0.032 9.664-0.064 19.36-0.128 28.992-0.224 50.752-4.576 107.84 11.776 156.608 12.448 37.12 42.016 52.096 78.4 52.096z" />
<glyph unicode="&#xe913;" glyph-name="social-youtube-v" horiz-adv-x="1056" d="M112.832 960c-56.736 0-102.4-45.696-102.4-102.4v-819.2c0-56.736 45.664-102.4 102.4-102.4h819.2c56.736 0 102.4 45.664 102.4 102.4v819.2c0 56.704-45.696 102.4-102.4 102.4h-819.2zM306.464 853.888h48.192l32.576-120.128 31.232 120.128h46.336l-55.104-182.016v-123.968h-45.824v123.968c-4.16 21.952-13.344 54.080-28.032 96.768-9.664 28.416-19.712 56.864-29.376 85.248zM526.176 778.688c20.704 0 36.832-7.776 48.256-23.36 8.672-11.52 12.8-29.376 12.8-53.76v-79.808c0-24.224-4.128-42.208-12.8-53.632-11.424-15.552-27.552-23.36-48.256-23.36-20.608 0-36.64 7.808-48.064 23.36-8.8 11.424-12.928 29.408-12.928 53.632v79.808c0 24.384 4.128 42.24 12.928 53.76 11.424 15.584 27.488 23.36 48.064 23.36zM621.216 775.904h41.216v-167.872c0-9.696 0.032-14.72 0.512-16.064 0.896-6.4 4.128-9.664 9.664-9.664 8.256 0 16.96 6.4 26.112 19.328v174.272h41.28v-228.032h-41.28v24.896c-16.448-18.848-32.16-28.032-47.232-28.032-13.28 0-22.432 5.408-26.56 16.96-2.272 6.912-3.712 17.824-3.712 33.92v180.288zM526.176 741.504c-13.312 0-19.712-10.528-19.712-31.616v-95.936c0-21.12 6.4-31.616 19.712-31.616s19.712 10.528 19.712 31.616v95.936c0 21.088-6.4 31.616-19.712 31.616zM509.6 510.592c5.216 0 10.4 0 15.616 0s10.432 0 15.616 0c79.392 0 159.040-0.608 237.76-9.408 35.424-3.968 64.8-30.528 73.088-66.496 11.776-51.232 11.712-107.104 11.712-159.872v-2.24c0-52.096-0.224-107.168-11.84-157.696-8.288-35.968-37.728-62.528-73.152-66.496-78.816-8.8-158.496-9.344-237.952-9.344-5.12 0-10.24 0-15.36 0s-10.24 0-15.36 0c-79.456 0-159.136 0.544-237.952 9.344-35.424 3.968-64.864 30.528-73.152 66.496-11.488 50.016-11.776 104.448-11.776 156.096v3.84c0 52.768 0.128 108.64 11.904 159.872 8.288 35.968 37.728 62.528 73.152 66.496 78.72 8.8 158.336 9.408 237.696 9.408zM237.28 426.432v-42.624h48.128v-260.224h45.504v260.224h48.96v42.624h-142.592zM538.784 426.432v-302.848h40.896v21.888c13.664-16.896 27.712-24.96 42.24-24.96 16.288 0 27.168 8.576 32.64 25.344 2.72 9.568 4.16 24.608 4.16 45.504v89.792c0 21.344-1.472 36.288-4.16 45.376-5.472 16.896-16.352 25.472-32.64 25.472-15.040 0-29.024-8.192-42.24-24.448v98.88h-40.896zM752.096 352c-20.864 0-37.152-7.712-48.96-23.168-8.672-11.424-12.608-28.992-12.608-53.12v-79.040c0-23.968 4.416-41.76 13.12-53.056 11.808-15.424 28.096-23.104 49.472-23.104s38.144 8.064 49.472 24.448c4.992 7.232 8.16 15.424 9.536 24.512 0.384 4.096 0.832 13.152 0.832 26.304v6.016h-41.664c0-16.384-0.512-25.472-0.896-27.712-2.336-10.944-8.224-16.448-18.304-16.448-14.048 0-20.864 10.464-20.864 31.36v40h81.728v46.72c0 24.128-4.032 41.696-12.608 53.12-11.456 15.456-27.744 23.168-48.256 23.168zM385.792 349.248v-178.432c0-15.936 1.344-26.72 3.584-33.536 4.096-11.424 13.216-16.768 26.368-16.768 15.040 0 30.464 9.056 46.72 27.712v-24.64h40.896v225.664h-40.896v-172.48c-9.056-12.8-17.632-19.072-25.856-19.072-5.44 0-8.576 3.2-9.6 9.536-0.384 1.344-0.384 6.304-0.384 15.872v166.144h-40.832zM600 315.2c11.808 0 17.792-10.4 17.792-30.784v-96.32c0-20.384-5.984-30.4-17.792-30.4-6.72 0-13.504 3.232-20.352 10.048v137.504c6.848 6.752 13.632 9.92 20.352 9.92zM751.776 315.2c13.536 0 20.352-10.432 20.352-31.296v-20.864h-40.896v20.864c0 20.864 6.88 31.296 20.544 31.296z" />
<glyph unicode="&#xe914;" glyph-name="study-ba" horiz-adv-x="1056" d="M522.464 960l-469.344-256v-517.568l469.344-250.432 469.344 250.432v514.784l-469.344 258.816zM479.776 55.52l-341.344 182.080v371.264l341.344-186.144v-367.2zM186.784 679.68l335.456 182.976 337.696-186.24-337.28-179.968-335.872 183.2zM906.464 237.568l-341.344-182.080v366.88l341.344 182.112v-366.944z" />
<glyph unicode="&#xe915;" glyph-name="study-fe" horiz-adv-x="1056" d="M778.464 532.032v274.048l-257.536 153.92-254.464-152.288v-277.28l-256-137.568v-307.872l261.792-148.992 250.208 144.736 250.208-144.736 261.792 148.992v306.208l-256 140.8zM315.2 751.104l181.344-110.72v-211.648l-181.344 103.296v219.072zM247.808 7.072l-188.608 108.32v220.832l188.64-110.752v-218.4zM86.816 378.432l203.872 107.968 180.8-103.136-199.168-113.856-185.504 108.992zM498.080 124.736l-201.472-117.664v218.304l201.44 115.072v-215.68zM521.024 684.288l-178.208 108.96 177.984 108.832 182.304-110.784-182.080-107.040zM545.312 640.224l184.384 108.32v-218.080l-184.384-101.728v211.488zM748.288 7.072l-201.472 117.664v218.272l201.472-117.504v-218.4zM574.464 385.184l181.216 101.984 203.456-110.688-186.336-107.072-198.336 115.776zM985.696 115.424l-188.608-108.32v218.304l188.64 108.288v-218.24z" />
<glyph unicode="&#xe916;" glyph-name="study-ma" horiz-adv-x="1056" d="M277.696 739.552l-267.264-145.76v-294.72l267.264-142.592 267.264 142.592v293.152l-267.264 147.36zM469.888 578.080l-192.064-102.464-191.232 104.32 191.008 104.192 192.288-106.048zM59.040 539.584l194.368-106.016v-209.088l-194.368 103.68v211.424zM302.016 224.48v208.928l194.368 103.712v-208.96l-194.368-103.68zM767.2 739.552l-267.264-145.76v-294.72l267.264-142.592 267.264 142.592v293.152l-267.264 147.36zM959.392 578.080l-192.064-102.464-191.264 104.32 191.040 104.192 192.32-106.048zM548.544 539.584l194.368-106.016v-209.088l-194.368 103.68v211.424zM791.488 224.48v208.928l194.368 103.712v-208.96l-194.368-103.68z" />
<glyph unicode="&#xe917;" glyph-name="time-full" horiz-adv-x="1056" d="M522.464 960c-282.784 0-512-229.216-512-512s229.216-512 512-512c282.784 0 512 229.216 512 512s-229.216 512-512 512zM522.464 137.472c-171.488 0-310.528 139.040-310.528 310.528s139.040 310.528 310.528 310.528c171.488 0 310.528-139.040 310.528-310.528s-139.008-310.528-310.496-310.528z" />
<glyph unicode="&#xe918;" glyph-name="time-half" horiz-adv-x="1056" d="M522.464 960c-282.784 0-512-229.216-512-512s229.216-512 512-512c282.784 0 512 229.216 512 512s-229.216 512-512 512zM622.048 742.208c2.4-0.8 4.8-1.664 7.168-2.528 116.512-42.656 200.352-153.152 203.648-283.648 0.064-2.656 0.096-5.344 0.096-8.032 0-171.488-139.040-310.528-310.496-310.528s-310.528 139.040-310.528 310.528c0 171.488 139.040 310.528 310.528 310.528 24.128 0 47.584-2.752 70.112-7.936 10.016-2.304 19.84-5.12 29.472-8.384zM34.144 448c0 269.664 218.624 488.288 488.288 488.288v-154.080c-184.576 0-334.208-149.632-334.208-334.208s149.632-334.208 334.208-334.208v-154.080c-269.664 0-488.288 218.624-488.288 488.288z" />
<glyph unicode="&#xe919;" glyph-name="tube" horiz-adv-x="1056" d="M517.44 674.336c0-28.224-22.88-51.104-51.104-51.104s-51.104 22.88-51.104 51.104 22.88 51.104 51.104 51.104c28.224 0 51.104-22.88 51.104-51.104zM597.632 918.208c0-23.072-18.72-41.792-41.824-41.792s-41.792 18.72-41.792 41.792c0 23.104 18.72 41.792 41.792 41.792s41.824-18.72 41.824-41.792zM617.76 682.592c-39.552 0-71.744 32.192-71.744 71.744s32.192 71.744 71.744 71.744c39.552 0 71.744-32.192 71.744-71.744s-32.192-71.744-71.744-71.744zM426.688 770.592c-33.728 0-61.152 27.424-61.152 61.184s27.424 61.152 61.152 61.152 61.184-27.424 61.184-61.152-27.424-61.184-61.184-61.184zM730.496-64h-416.096c-56.352 0-93.44 58.976-68.992 109.76l118.4 246.208c32.928 68.512 50.048 143.552 50.048 219.584v48.832h72.512c0-51.808 6.176-145.92-40.16-262.304h101.824l129.408-271.616c14.272-29.888 56.48-13.728 41.696 16.992-13.28 27.584-38.016 80.032-103.808 216.864-65.6 136.416-56.864 248.32-56.864 300.032h72.608v-48.832c0-76.032 17.12-151.072 50.048-219.584l118.4-246.208c24.448-50.784-12.64-109.76-68.992-109.76z" />
<glyph unicode="&#xe91a;" glyph-name="document-write" horiz-adv-x="1056" d="M373.888 347.072h-179.296v67.872h179.264v-67.872zM1034.464 796.32l-363.296-363.104-151.008 150.912 363.264 363.104 151.040-150.912zM751.808 402.208v-96.096c0-146.528-180.928-87.84-180.928-87.84s55.392-176.64-81.248-176.64h-386.336v770.752h533.504l92.928 92.864h-719.264v-956.48h480.576c158.24 0 353.6 206.784 353.6 349.344v196.928l-92.864-92.832zM478.72 538.464l146.56-146.464-193.92-43.904 47.36 190.368z" />
<glyph unicode="&#xe91b;" glyph-name="document" horiz-adv-x="1056" d="M495.264 860.576c177.312 0 106.88-230.304 106.88-230.304s237.696 58.816 237.696-116.416v-478.432h-634.688v825.152h290.144zM655.808 907.84c-33.152 33.376-78.24 52.16-125.28 52.16h-424.832v-1024h833.536v613.792c0 46.624-18.464 91.392-51.328 124.48l-232.096 233.6z" />
<glyph unicode="&#xe91c;" glyph-name="download" horiz-adv-x="1056" d="M1034.464 478.272c0-126.752-103.136-229.888-229.888-229.888h-88.736v99.712h88.736c71.776 0 130.176 58.4 130.176 130.176 0 88.288-59.36 133.984-122.592 134.24-3.264 146.816-101.312 211.808-196.096 211.808-125.408 0-176.928-94.912-189.76-131.264-51.136 73.728-189.888 18.080-161.12-80.64-86.080 15.616-155.008-49.216-155.008-134.144 0-71.776 58.4-130.176 130.176-130.176h101.6v-99.712h-101.632c-126.752 0-229.888 103.136-229.888 229.888 0 103.232 68.704 192.256 164.928 220.512 27.040 92.224 124.096 146.272 216.704 121.6 55.424 65.568 136.512 103.648 224 103.648 142.368 0 262.656-101.728 288.608-238.752 78.784-37.888 129.792-117.472 129.792-207.040zM645.952 353.856c0 76.672 15.072 120.864 79.584 141.696-50.016 21.088-311.68 71.808-311.68-167.072v-146.848h-93.248l209.312-209.632 209.28 209.632h-93.248c0 0 0 105.216 0 172.224z" />
<glyph unicode="&#xe91d;" glyph-name="filter" d="M422.816 359.616l-292.8 500.384h765.792l-294.016-500.384h-179.008zM442.592 291.616v-255.616h139.2v255.616h-139.2z" />
<glyph unicode="&#xe91e;" glyph-name="menu" horiz-adv-x="1056" d="M1002.464 213.088h-960c-17.632 0-32-15.392-32-34.208v-145.952c0-18.080 14.368-32.864 32-32.864h960c17.664 0 32 14.752 32 32.864v145.952c0 18.816-14.304 34.208-32 34.208zM1002.464 554.496h-960c-17.632 0-32-15.392-32-34.176v-145.984c0-18.144 14.368-32.864 32-32.864h960c17.664 0 32 14.72 32 32.864v145.952c0 18.816-14.304 34.208-32 34.208zM1002.464 895.936h-960c-17.632 0-32-15.392-32-34.176v-145.952c0-18.048 14.368-32.832 32-32.832h960c17.664 0 32 14.784 32 32.832v145.952c0 18.816-14.304 34.208-32 34.208z" />
<glyph unicode="&#xe91f;" glyph-name="search" horiz-adv-x="960" d="M960 128l-249.12 249.12c35.552 58.048 57.12 125.728 57.12 198.88 0 212.032-172 384-384 384s-384-171.968-384-384c0-212 171.968-384 384-384 73.152 0 140.8 21.568 198.88 56.992l249.12-248.992c17.504-17.504 46.496-17.376 64 0l64 64c17.504 17.504 17.504 46.496 0 64zM384 320c-141.376 0-256 114.624-256 256s114.624 256 256 256 256-114.624 256-256-114.624-256-256-256z" />
<glyph unicode="&#xe920;" glyph-name="slash" horiz-adv-x="1056" d="M539.68 960l-216.384-1024h181.92l216.384 1024z" />
<glyph unicode="&#xe921;" glyph-name="smiley-oje" d="M770.784 251.616l-21.856-21.856c-87.008 52.96-142.304 75.744-231.968 75.744s-144.992-22.784-231.968-75.744l-21.856 21.856c45.472 65.888 140.544 145.856 253.824 145.856s208.352-79.936 253.824-145.856zM661.952 633.152c-42.56 0-77.056-34.496-77.056-77.056s34.496-77.056 77.056-77.056c42.56 0 77.056 34.496 77.056 77.056s-34.496 77.056-77.056 77.056zM372 633.152c-42.56 0-77.056-34.496-77.056-77.056s34.496-77.056 77.056-77.056c42.56 0 77.056 34.496 77.056 77.056s-34.496 77.056-77.056 77.056zM512 35.424c-228 0-412.576 184.512-412.576 412.576 0 228.032 184.544 412.576 412.576 412.576 228 0 412.576-184.512 412.576-412.576 0-228.032-184.512-412.576-412.576-412.576zM512 960c-282.784 0-512-229.216-512-512s229.216-512 512-512c282.784 0 512 229.216 512 512s-229.216 512-512 512z" />
<glyph unicode="&#xe922;" glyph-name="smiley" d="M492.224 532.16c-8.384-5.792-36.192-24.32-36.192-24.32s-24.16 45.536-83.808 45.536c-57.984 0-83.808-45.536-83.808-45.536s-27.84 18.528-36.192 24.32c13.536 35.904 57.856 96.128 120 96.128s106.464-60.224 120-96.128zM787.488 532.16c-8.384-5.792-36.192-24.32-36.192-24.32s-24.16 45.536-83.808 45.536c-57.984 0-83.808-45.536-83.808-45.536s-27.808 18.528-36.192 24.32c13.536 35.904 57.856 96.128 120 96.128s106.464-60.224 120-96.128zM781.728 368.288c-18.272-63.136-123.616-184.288-264.736-184.288s-246.496 121.184-264.736 184.288h529.504zM512 35.424c-228 0-412.576 184.512-412.576 412.576 0 228.032 184.544 412.576 412.576 412.576 228 0 412.576-184.512 412.576-412.576 0-228.032-184.512-412.576-412.576-412.576zM512 960c-282.784 0-512-229.216-512-512s229.216-512 512-512c282.784 0 512 229.216 512 512s-229.216 512-512 512z" />
<glyph unicode="&#xe923;" glyph-name="social-facebook" horiz-adv-x="1056" d="M112.832 960c-56.736 0-102.4-45.664-102.4-102.4v-819.2c0-56.736 45.664-102.4 102.4-102.4h819.2c56.736 0 102.4 45.664 102.4 102.4v819.2c0 56.736-45.664 102.4-102.4 102.4h-819.2zM600 775.616h100.224v-114.816h-60.096c-47.904 0-54.656-15.616-54.656-46.464v-68.288h114.752l-13.632-114.816h-101.12v-344.32h-148.864v344.32h-80.704v114.816h80.704v76.544c0 96.672 40.544 153.024 163.392 153.024z" />
<glyph unicode="&#xe924;" glyph-name="social-twitter-b" d="M102.4 960c-56.736 0-102.4-45.664-102.4-102.4v-819.2c0-56.736 45.664-102.4 102.4-102.4h819.2c56.736 0 102.4 45.664 102.4 102.4v819.2c0 56.736-45.664 102.4-102.4 102.4h-819.2zM671.872 793.536c1.472 0.032 2.976 0 4.48 0 49.856 0 94.848-21.056 126.464-54.72 39.488 7.776 76.608 22.24 110.080 42.112-12.928-40.512-40.416-74.432-76.224-95.872 35.072 4.16 68.48 13.472 99.52 27.264-23.2-34.752-52.608-65.28-86.464-89.664 0.32-7.424 0.512-14.944 0.512-22.464 0-228.992-174.304-493.056-493.056-493.056-97.856 0-188.896 28.704-265.6 77.888 13.568-1.6 27.36-2.432 41.344-2.432 81.216 0 155.872 27.68 215.168 74.176-75.808 1.376-139.808 51.552-161.856 120.384 10.592-2.048 21.472-3.136 32.64-3.136 15.808 0 31.104 2.144 45.632 6.080-79.264 15.936-139.008 85.92-139.008 169.856 0 0.736 0 1.536 0 2.24 23.36-12.992 50.144-20.8 78.528-21.696-46.496 31.072-77.12 84.096-77.12 144.192 0 31.776 8.576 61.6 23.488 87.168 85.472-104.832 213.152-173.824 357.184-181.056-2.976 12.704-4.48 25.92-4.48 39.488 0 94.208 75.136 170.88 168.768 173.248z" />
</font>
</defs>
</svg>
